<svg xmlns="http://www.w3.org/2000/svg" 
xmlns:xlink="http://www.w3.org/1999/xlink" 
version="1.1"
x="0px" 
y="0px" 
width="23px" 
height="23px" 
viewBox="0 0 120 100" 
xml:space="preserve">
<path fill="#ff9b42" d="M50,0C22.43,0,0,22.43,0,50c0,27.57,22.43,50,50,50c27.57,0,50-22.43,50-50C100,22.43,77.57,0,50,0z M4.706,50  C4.706,25.025,25.025,4.706,50,4.706c13.377,0,25.414,5.834,33.713,15.085C75.68,11.884,64.662,7,52.5,7C27.923,7,8,26.923,8,51.5  c0,19.965,13.146,36.857,31.254,42.495C19.451,89.157,4.706,71.271,4.706,50z M21.17,31.106c1.216-3.169,3.119-6.107,5.457-8.638  c2.349-2.525,5.133-4.65,8.145-6.323c3.017-1.669,6.281-2.854,9.621-3.545c3.34-0.694,6.755-0.89,10.107-0.666  c0.313,0.021,0.548,0.291,0.527,0.604c-0.02,0.286-0.25,0.508-0.527,0.527c-3.271,0.224-6.493,0.753-9.589,1.644  c-3.095,0.89-6.058,2.152-8.783,3.793c-2.735,1.63-5.196,3.668-7.397,5.958c-2.223,2.283-4.181,4.796-6.152,7.434  c-0.269,0.36-0.779,0.434-1.139,0.165c-0.299-0.224-0.4-0.611-0.273-0.943L21.17,31.106z M55.514,52.348l5.01,5.848l7.639-0.993  l-4.014,6.573l3.305,6.957l-7.492-1.785l-5.595,5.292l-0.617-7.677l-6.763-3.687l7.112-2.958L55.514,52.348z M32.831,40.722  l5.012,5.848l7.638-0.993l-4.013,6.573l3.303,6.957l-7.492-1.787l-5.594,5.294l-0.618-7.677l-6.762-3.686l7.11-2.96L32.831,40.722z   M55.713,25.273l5.012,5.848l7.637-0.993l-4.014,6.573l3.305,6.958l-7.491-1.786l-5.597,5.292l-0.615-7.677l-6.763-3.685  l7.111-2.959L55.713,25.273z"/></svg>
