<svg 
    xmlns="http://www.w3.org/2000/svg" 
    xmlns:xlink="http://www.w3.org/1999/xlink" 
    version="1.1" 
    x="0px" 
    y="0px" 
    width="23px" 
    height="23px" 
    viewBox="0 0 120 100" 
    xml:space="preserve">
    
    <path fill="#1d2021" d="M50,0C22.43,0,0,22.43,0,50c0,27.57,22.43,50,50,50c27.57,0,50-22.43,50-50C100,22.43,77.57,0,50,0z   
    M4.706,50C4.706,25.025,25.025,4.706,50,4.706c13.377,0,25.414,5.834,33.713,15.085C75.68,11.884,64.662,7,52.5,7  
    C27.923,7,8,26.923,8,51.5c0,19.965,13.146,36.857,31.254,42.495C19.451,89.157,4.706,71.271,4.706,50z 
    M21.169,31.106  c1.216-3.169,3.12-6.107,5.457-8.638c2.349-2.525,5.134-4.65,8.145-6.323c3.017-1.669,6.282-2.854,9.622-3.545  
    c3.34-0.694,6.755-0.89,10.107-0.666c0.313,0.021,0.548,0.291,0.527,0.604c-0.02,0.286-0.25,0.508-0.527,0.527  
    c-3.271,0.224-6.493,0.753-9.589,1.644c-3.094,0.89-6.058,2.152-8.783,3.793c-2.735,1.63-5.196,3.668-7.397,5.958  
    c-2.222,2.283-4.181,4.796-6.152,7.434c-0.269,0.36-0.779,0.434-1.14,0.165c-0.298-0.224-0.4-0.611-0.273-0.943L21.169,31.106z   
    M50,39.075l3.327,6.946l7.635,1.018l-5.578,5.311l1.39,7.575L50,56.261l-6.774,3.664l1.391-7.575l-5.579-5.311l7.634-1.018  
    L50,39.075z"/>
</svg>
