<svg xmlns="http://www.w3.org/2000/svg" xmlns:xlink="http://www.w3.org/1999/xlink" version="1.1" x="0px" y="0px" viewBox="0 0 100 125" enable-background="new 0 0 100 100" xml:space="preserve"><path d="M50,0C22.43,0,0,22.43,0,50c0,27.57,22.43,50,50,50c27.57,0,50-22.43,50-50C100,22.43,77.57,0,50,0z M4.706,50  C4.706,25.025,25.025,4.706,50,4.706c13.377,0,25.414,5.834,33.713,15.085C75.68,11.884,64.662,7,52.5,7C27.923,7,8,26.923,8,51.5  c0,19.965,13.146,36.857,31.254,42.495C19.451,89.157,4.706,71.271,4.706,50z M21.17,31.106c1.216-3.169,3.119-6.107,5.457-8.638  c2.349-2.525,5.133-4.65,8.145-6.323c3.017-1.669,6.281-2.854,9.621-3.545c3.34-0.694,6.755-0.89,10.107-0.666  c0.313,0.021,0.548,0.291,0.527,0.604c-0.02,0.286-0.25,0.508-0.527,0.527c-3.271,0.224-6.493,0.753-9.589,1.644  c-3.095,0.89-6.058,2.152-8.783,3.793c-2.735,1.63-5.196,3.668-7.397,5.958c-2.223,2.283-4.181,4.796-6.152,7.434  c-0.269,0.36-0.779,0.434-1.139,0.165c-0.299-0.224-0.4-0.611-0.273-0.943L21.17,31.106z M41.748,22.541l5.501,5.39l7.522-1.656  l-3.424,6.898l3.897,6.643l-7.62-1.126l-5.112,5.759l-1.284-7.594l-7.058-3.081l6.825-3.568L41.748,22.541z M26.161,52.764  l5.501,5.389l7.524-1.654l-3.426,6.898l3.899,6.642l-7.62-1.126l-5.113,5.761l-1.284-7.595l-7.058-3.082l6.826-3.566L26.161,52.764z   M68.411,31.766l5.501,5.388l7.523-1.653l-3.426,6.897l3.898,6.642l-7.62-1.126l-5.112,5.761l-1.283-7.594l-7.059-3.082l6.826-3.568  L68.411,31.766z M55.586,63.829l5.502,5.39l7.521-1.654l-3.424,6.897l3.898,6.642l-7.62-1.125l-5.112,5.76l-1.285-7.594  l-7.057-3.082l6.825-3.568L55.586,63.829z M48.651,43.4l5.501,5.39l7.523-1.656l-3.426,6.898l3.898,6.643l-7.619-1.126l-5.113,5.76  l-1.283-7.594l-7.059-3.082l6.827-3.568L48.651,43.4z"/><text x="0" y="115" fill="#000000" font-size="5px" font-weight="bold" font-family="'Helvetica Neue', Helvetica, Arial-Unicode, Arial, Sans-serif">Created by Theresa Stoodley</text><text x="0" y="120" fill="#000000" font-size="5px" font-weight="bold" font-family="'Helvetica Neue', Helvetica, Arial-Unicode, Arial, Sans-serif">from the Noun Project</text></svg>