<svg xmlns="http://www.w3.org/2000/svg" xmlns:xlink="http://www.w3.org/1999/xlink" version="1.1" x="0px" y="0px" viewBox="0 0 100 125" enable-background="new 0 0 100 100" xml:space="preserve"><g><path d="M50,0C22.43,0,0,22.43,0,50s22.43,50,50,50s50-22.43,50-50S77.57,0,50,0z M4.706,50C4.706,25.025,25.025,4.706,50,4.706   c13.377,0,25.414,5.834,33.713,15.085C75.68,11.884,64.662,7,52.5,7C27.923,7,8,26.923,8,51.5   c0,19.965,13.146,36.857,31.254,42.495C19.451,89.157,4.706,71.272,4.706,50z M21.17,31.106c1.216-3.169,3.119-6.107,5.457-8.638   c2.349-2.525,5.133-4.65,8.145-6.323c3.017-1.669,6.281-2.854,9.621-3.545c3.34-0.694,6.755-0.89,10.107-0.666   c0.313,0.021,0.548,0.291,0.527,0.604c-0.019,0.286-0.249,0.508-0.527,0.527c-3.272,0.224-6.493,0.753-9.589,1.644   c-3.095,0.89-6.058,2.152-8.783,3.793c-2.735,1.63-5.196,3.668-7.397,5.958c-2.223,2.283-4.181,4.796-6.152,7.434   c-0.269,0.36-0.779,0.434-1.139,0.165c-0.299-0.224-0.4-0.611-0.273-0.943L21.17,31.106z M40.627,22.828l5.227,5.121L53,26.376   l-3.255,6.553l3.704,6.311l-7.239-1.068l-4.857,5.472l-1.219-7.215L33.429,33.5l6.483-3.389L40.627,22.828z M28.426,42.123   l5.227,5.12l7.146-1.572l-3.254,6.553l3.703,6.311l-7.237-1.069l-4.858,5.471l-1.219-7.214l-6.706-2.928l6.485-3.389L28.426,42.123   z M71.339,40.811l5.227,5.121l7.146-1.573l-3.255,6.554l3.705,6.31l-7.239-1.07l-4.857,5.474l-1.218-7.215l-6.706-2.929   l6.484-3.388L71.339,40.811z M59.579,61.539l5.227,5.12l7.147-1.573l-3.256,6.554l3.704,6.311l-7.239-1.07l-4.856,5.472   l-1.22-7.214l-6.704-2.928l6.483-3.389L59.579,61.539z M62.069,22.133l5.228,5.119l7.146-1.572l-3.253,6.553l3.703,6.311   l-7.239-1.069l-4.856,5.473l-1.22-7.215l-6.705-2.928l6.483-3.39L62.069,22.133z M37.965,62.66l5.227,5.12l7.146-1.573   l-3.255,6.554l3.704,6.31l-7.238-1.069l-4.857,5.472l-1.219-7.215l-6.706-2.927l6.484-3.39L37.965,62.66z M48.918,42.034   l5.228,5.12l7.146-1.572l-3.255,6.553l3.704,6.311l-7.238-1.069l-4.857,5.472l-1.218-7.215l-6.707-2.928l6.485-3.389L48.918,42.034   z"/></g><text x="0" y="115" fill="#000000" font-size="5px" font-weight="bold" font-family="'Helvetica Neue', Helvetica, Arial-Unicode, Arial, Sans-serif">Created by Theresa Stoodley</text><text x="0" y="120" fill="#000000" font-size="5px" font-weight="bold" font-family="'Helvetica Neue', Helvetica, Arial-Unicode, Arial, Sans-serif">from the Noun Project</text></svg>