<?xml version="1.0" encoding="UTF-8"?>
<svg xmlns="http://www.w3.org/2000/svg" xmlns:xlink="http://www.w3.org/1999/xlink" width="35px" height="35px" viewBox="0 0 24 24" version="1.1">
<g id="surface1">
<path style=" stroke:none;fill-rule:nonzero;fill:rgb(100%,60.784316%,25.882354%);fill-opacity:1;" d="M 5 1.988281 C 5 1.523438 4.621094 1.144531 4.15625 1.144531 L 3.84375 1.144531 C 3.378906 1.144531 3 1.523438 3 1.988281 L 3 4.328125 L 5 4.328125 Z M 5 1.988281 "/>
<path style=" stroke:none;fill-rule:nonzero;fill:rgb(100%,60.784316%,25.882354%);fill-opacity:1;" d="M 9 1.988281 C 9 1.523438 8.621094 1.144531 8.15625 1.144531 L 7.84375 1.144531 C 7.378906 1.144531 7 1.523438 7 1.988281 L 7 4.328125 L 9 4.328125 Z M 9 1.988281 "/>
<path style=" stroke:none;fill-rule:nonzero;fill:rgb(100%,60.784316%,25.882354%);fill-opacity:1;" d="M 13 1.988281 C 13 1.523438 12.621094 1.144531 12.15625 1.144531 L 11.84375 1.144531 C 11.378906 1.144531 11 1.523438 11 1.988281 L 11 4.328125 L 13 4.328125 Z M 13 1.988281 "/>
<path style=" stroke:none;fill-rule:nonzero;fill:rgb(100%,60.784316%,25.882354%);fill-opacity:1;" d="M 17 1.988281 C 17 1.523438 16.621094 1.144531 16.15625 1.144531 L 15.84375 1.144531 C 15.378906 1.144531 15 1.523438 15 1.988281 L 15 4.328125 L 17 4.328125 Z M 17 1.988281 "/>
<path style=" stroke:none;fill-rule:nonzero;fill:rgb(100%,60.784316%,25.882354%);fill-opacity:1;" d="M 3 22.011719 C 3 22.476562 3.378906 22.855469 3.84375 22.855469 L 4.15625 22.855469 C 4.621094 22.855469 5 22.476562 5 22.011719 L 5 19.675781 L 3 19.675781 Z M 3 22.011719 "/>
<path style=" stroke:none;fill-rule:nonzero;fill:rgb(100%,60.784316%,25.882354%);fill-opacity:1;" d="M 7 22.011719 C 7 22.476562 7.378906 22.855469 7.84375 22.855469 L 8.15625 22.855469 C 8.621094 22.855469 9 22.476562 9 22.011719 L 9 19.675781 L 7 19.675781 Z M 7 22.011719 "/>
<path style=" stroke:none;fill-rule:nonzero;fill:rgb(100%,60.784316%,25.882354%);fill-opacity:1;" d="M 11 22.011719 C 11 22.476562 11.378906 22.855469 11.84375 22.855469 L 12.15625 22.855469 C 12.621094 22.855469 13 22.476562 13 22.011719 L 13 19.675781 L 11 19.675781 Z M 11 22.011719 "/>
<path style=" stroke:none;fill-rule:nonzero;fill:rgb(100%,60.784316%,25.882354%);fill-opacity:1;" d="M 15 22.011719 C 15 22.476562 15.378906 22.855469 15.84375 22.855469 L 16.15625 22.855469 C 16.621094 22.855469 17 22.476562 17 22.011719 L 17 19.675781 L 15 19.675781 Z M 15 22.011719 "/>
<path style=" stroke:none;fill-rule:nonzero;fill:rgb(100%,60.784316%,25.882354%);fill-opacity:1;" d="M 21 1.988281 C 21 1.523438 20.621094 1.144531 20.15625 1.144531 L 19.84375 1.144531 C 19.378906 1.144531 19 1.523438 19 1.988281 L 19 4.328125 L 21 4.328125 Z M 21 1.988281 "/>
<path style=" stroke:none;fill-rule:nonzero;fill:rgb(100%,60.784316%,25.882354%);fill-opacity:1;" d="M 19 22.011719 C 19 22.476562 19.378906 22.855469 19.84375 22.855469 L 20.15625 22.855469 C 20.621094 22.855469 21 22.476562 21 22.011719 L 21 19.675781 L 19 19.675781 Z M 19 22.011719 "/>
<path style=" stroke:none;fill-rule:nonzero;fill:rgb(100%,60.784316%,25.882354%);fill-opacity:1;" d="M 7.882812 10.5 L 6.984375 10.5 C 6.957031 10.5 6.945312 10.511719 6.945312 10.535156 L 6.945312 11.660156 C 6.945312 11.683594 6.957031 11.695312 6.984375 11.695312 L 7.882812 11.695312 C 8.269531 11.695312 8.527344 11.460938 8.527344 11.101562 C 8.527344 10.734375 8.269531 10.5 7.882812 10.5 Z M 7.882812 10.5 "/>
<path style=" stroke:none;fill-rule:nonzero;fill:rgb(100%,60.784316%,25.882354%);fill-opacity:1;" d="M 11.742188 10.890625 L 11.179688 12.527344 L 12.320312 12.527344 L 11.761719 10.890625 Z M 11.742188 10.890625 "/>
<path style=" stroke:none;fill-rule:nonzero;fill:rgb(100%,60.784316%,25.882354%);fill-opacity:1;" d="M 0 5.578125 L 0 18.425781 L 24 18.425781 L 24 5.578125 Z M 9.300781 14.0625 L 8.609375 14.0625 C 8.558594 14.0625 8.535156 14.042969 8.515625 14 L 7.710938 12.355469 L 6.984375 12.355469 C 6.957031 12.355469 6.945312 12.367188 6.945312 12.390625 L 6.945312 14 C 6.945312 14.039062 6.921875 14.0625 6.882812 14.0625 L 6.273438 14.0625 C 6.238281 14.0625 6.214844 14.039062 6.214844 14 L 6.214844 9.902344 C 6.214844 9.863281 6.238281 9.839844 6.273438 9.839844 L 7.90625 9.839844 C 8.683594 9.839844 9.253906 10.355469 9.253906 11.101562 C 9.253906 11.652344 8.9375 12.082031 8.453125 12.261719 L 9.34375 13.980469 C 9.367188 14.023438 9.34375 14.0625 9.300781 14.0625 Z M 13.511719 14.0625 L 12.90625 14.0625 C 12.863281 14.0625 12.835938 14.042969 12.824219 14 L 12.542969 13.179688 L 10.953125 13.179688 L 10.675781 14 C 10.664062 14.042969 10.640625 14.0625 10.59375 14.0625 L 9.992188 14.0625 C 9.949219 14.0625 9.9375 14.039062 9.949219 14 L 11.394531 9.902344 C 11.410156 9.863281 11.433594 9.839844 11.476562 9.839844 L 12.046875 9.839844 C 12.089844 9.839844 12.117188 9.863281 12.128906 9.902344 L 13.558594 14 C 13.570312 14.039062 13.558594 14.0625 13.511719 14.0625 Z M 17.894531 14 C 17.894531 14.039062 17.871094 14.0625 17.832031 14.0625 L 17.292969 14.0625 C 17.257812 14.0625 17.230469 14.039062 17.230469 14 L 17.230469 11.417969 L 17.207031 11.417969 L 16.3125 13.40625 C 16.285156 13.460938 16.25 13.484375 16.195312 13.484375 L 15.832031 13.484375 C 15.777344 13.484375 15.742188 13.460938 15.714844 13.40625 L 14.820312 11.417969 L 14.796875 11.417969 L 14.796875 14 C 14.796875 14.039062 14.773438 14.0625 14.734375 14.0625 L 14.195312 14.0625 C 14.15625 14.0625 14.132812 14.039062 14.132812 14 L 14.132812 9.902344 C 14.132812 9.863281 14.15625 9.839844 14.195312 9.839844 L 14.746094 9.839844 C 14.804688 9.839844 14.835938 9.859375 14.851562 9.902344 L 16.015625 12.503906 L 16.039062 12.503906 L 17.179688 9.902344 C 17.199219 9.859375 17.230469 9.839844 17.289062 9.839844 L 17.832031 9.839844 C 17.871094 9.839844 17.894531 9.863281 17.894531 9.902344 Z M 17.894531 14 "/>
</g>
</svg>
